<?xml version="1.0" encoding="UTF-8" standalone="no"?>
<svg
   xmlns:dc="http://purl.org/dc/elements/1.1/"
   xmlns:cc="http://creativecommons.org/ns#"
   xmlns:rdf="http://www.w3.org/1999/02/22-rdf-syntax-ns#"
   xmlns:svg="http://www.w3.org/2000/svg"
   xmlns="http://www.w3.org/2000/svg"
   viewBox="0 0 40.723751 39.718582"
   height="39.718582"
   width="40.723751"
   xml:space="preserve"
   version="1.1"
   id="svg2"><metadata
     id="metadata8"><rdf:RDF><cc:Work
         rdf:about=""><dc:format>image/svg+xml</dc:format><dc:type
           rdf:resource="http://purl.org/dc/dcmitype/StillImage" /><dc:title></dc:title></cc:Work></rdf:RDF></metadata><defs
     id="defs6" /><g
     transform="matrix(1.25,0,0,-1.25,14.050811,263.11396)"
     id="g10"><path
       id="path4324"
       style="fill:#ffffff;fill-opacity:1;fill-rule:evenodd;stroke:none"
       d="m 5.0473512,210.49117 c -8.994,0 -16.2880002,-7.293 -16.2880002,-16.29 0,-7.197 4.6670002,-13.302 11.14000018,-15.456 0.815,-0.15 1.11200002,0.353 1.11200002,0.785 0,0.387 -0.014,1.411 -0.022,2.77 -4.531,-0.984 -5.487,2.184 -5.487,2.184 -0.741,1.882 -1.809,2.383 -1.809,2.383 -1.479,1.01 0.112,0.99 0.112,0.99 1.635,-0.115 2.495,-1.679 2.495,-1.679 1.453,-2.489 3.813,-1.77 4.741,-1.353 0.148,1.052 0.56901,1.77 1.034,2.177 -3.617,0.411 -7.42,1.809 -7.42,8.051 0,1.778 0.635,3.233 1.677,4.371 -0.168,0.412 -0.727,2.069 0.16,4.311 0,0 1.367,0.438 4.479,-1.67 1.299,0.362 2.693,0.542 4.078,0.549 1.384,-0.007 2.777,-0.187 4.078,-0.549 3.1099998,2.108 4.4749998,1.67 4.4749998,1.67 0.889,-2.242 0.33,-3.899 0.163,-4.311 1.044,-1.138 1.674,-2.593 1.674,-4.371 0,-6.258 -3.809,-7.635 -7.4369998,-8.038 0.584,-0.503 1.105,-1.497 1.105,-3.016 0,-2.178 -0.02,-3.935 -0.02,-4.469 0,-0.436 0.294,-0.943 1.1199998,-0.784 6.468,2.159 11.131,8.26 11.131,15.455 0,8.997 -7.294,16.29 -16.2909998,16.29" /></g></svg>